<svg id="Layer_1" enable-background="new 0 0 512.007 512.007" height="512" viewBox="0 0 512.007 512.007" width="512" xmlns="http://www.w3.org/2000/svg"><g><g><g><path d="m8.158 504.544v-25.892c0-44.367 24.687-85.048 64.041-105.533l37.959-19.758c13.187-6.864 21.459-20.495 21.459-35.362v-35.338h49.687v35.339c0 14.867 8.272 28.498 21.459 35.362l37.959 19.758c8.568 4.459 13.561 7.434 20.634 13.638l22.301 15.62-67.333 102.167h-208.166z" fill="#fcd1b3"/><path d="m261.357 386.758c-7.074-6.204-12.067-9.178-20.634-13.638l-37.959-19.758c-13.187-6.864-21.459-20.495-21.459-35.362v-35.338h-40v35.338c0 14.866 8.272 28.498 21.459 35.362l37.959 19.758c8.568 4.46 13.561 7.434 20.634 13.638l22.301 15.62-67.333 102.167h40l67.333-102.167z" fill="#fcc29a"/><g><g><path d="m264.158 388.127c-7.074-6.204-14.868-10.548-23.435-15.008l-28.278-14.719-53.476 53.477-55.193-55.194-31.576 16.437c-39.355 20.484-64.042 61.165-64.042 105.532v25.892h168.5l107-102.167z" fill="#1cca96"/></g><g><path d="m258.658 409.377-46.035 60.826 71.035-67.826-19.5-14.25c-7.074-6.204-14.868-10.548-23.435-15.008l-28.278-14.719-13.693 13.693c0 .001 44.148 21.51 59.906 37.284z" fill="#19b586"/></g><g><path d="m45.899 187.239v-70.523c0-60.294 48.876-109.171 109.169-109.171 60.292 0 109.169 48.878 109.169 109.171v69.497z" fill="#b55c22"/><path d="m155.067 7.544c-5.09 0-10.096.356-15 1.031 53.193 7.311 84.169 52.937 84.169 108.141v69.497l-178.337.886v.141l218.337-1.027v-69.497c0-60.295-48.876-109.172-109.169-109.172z" fill="#a84c0f"/><path d="m85.995 205.613h-34.7c-8.119 0-14.701-6.582-14.701-14.701 0-8.119 6.582-14.701 14.701-14.701h34.7z" fill="#fcc29a"/><path d="m222.9 176.212h34.7c8.119 0 14.701 6.582 14.701 14.701 0 8.119-6.582 14.701-14.701 14.701h-34.7z" fill="#fcc29a"/><path d="m65.995 156.28v93.233c0 18.656 11.247 35.471 28.489 42.593 38.36 15.845 81.433 15.857 119.802.033l.101-.042c17.255-7.116 28.513-23.938 28.513-42.603v-133.484c0-15.109-12.248-27.358-27.357-27.358h-2.961c-7.681 0-14.635 3.113-19.668 8.147-18.034 18.034-38.623 33.314-61.9 43.736l-5.215 2.335c-18.834 8.433-39.172 12.993-59.804 13.41z" fill="#fcd1b3"/><path d="m215.543 88.652h-2.961c-7.156 0-13.678 2.704-18.607 7.144 5.483 5.003 8.925 12.207 8.925 20.214v133.485c0 18.665-11.258 35.486-28.513 42.603l-.101.042c-12.876 5.311-26.283 8.829-39.863 10.572 26.858 3.449 54.397-.069 79.863-10.572l.101-.042c17.255-7.116 28.513-23.938 28.513-42.603v-133.485c0-15.11-12.248-27.358-27.357-27.358z" fill="#fcc29a"/></g></g></g><g><path d="m334.425 504.544 31.574-80.207c2.347-5.961 8.101-9.88 14.508-9.88h67.52c23.945 0 45.031-15.768 51.8-38.736l4.197-14.24c2.169-7.358-3.347-14.734-11.018-14.734h-31.684c-4.93 0-9.57-2.332-12.512-6.289l-25.495-34.292c-8.957-12.047-23.085-19.148-38.097-19.148l-52.772 11.027-158.026 206.5h160.005z" fill="#fcd1b3"/><g fill="#fcc29a"><path d="m493.006 346.745h-24.756s-2.057 7.376-4.226 14.734l-4.197 14.24c-6.77 22.968-27.855 38.736-51.8 38.736h40c23.945 0 45.031-15.768 51.8-38.736l4.197-14.24c2.169-7.358-3.347-14.734-11.018-14.734z"/><path d="m325.999 424.336-31.574 80.208h40l31.574-80.208c2.347-5.961 8.101-9.88 14.508-9.88h-40c-6.407 0-12.161 3.919-14.508 9.88z"/></g><path d="m304.003 302.139 31.356 59.53c5.413 10.276 20.477 9.152 24.304-1.814l24.508-70.226c3.373-9.666-4.991-19.356-15.046-17.43l-55.865 10.697c-8.764 1.676-13.416 11.346-9.257 19.243z" fill="#b55c22"/><g><path d="m504.024 361.479c2.169-7.358-3.347-14.734-11.018-14.734h-17.477c0 12.399 7.994 30.897 22.009 33.004h.924c.503-1.317.961-2.66 1.365-4.03z" fill="#b55c22"/></g></g></g><g><path d="m346.444 474.011c-3.852-1.519-8.208.377-9.726 4.231l-9.272 23.555c-3.408 8.655 10.273 14.854 13.957 5.494l9.272-23.555c1.518-3.854-.376-8.208-4.231-9.725z"/><path d="m508.211 346.861c-3.62-4.84-9.162-7.616-15.206-7.616h-31.684c-2.546 0-4.974-1.22-6.494-3.264l-25.495-34.292c-9.014-12.124-22.733-19.979-37.587-21.777-2.76-10.339-13.496-17.101-24.031-15.082l-55.864 10.697c-13.427 2.571-20.93 17.868-14.484 30.106l8.291 15.74-43.583 56.74c-16.407-13.236-37.902-21.72-56.507-31.405-10.746-5.593-17.422-16.594-17.422-28.709v-10.101c9.597-2.071 19.078-5.006 28.343-8.827l.099-.041c20.14-8.306 33.153-27.75 33.153-49.536v-36.382h7.2c20.297 0 29.791-26.347 14.136-39.306v-57.092c0-64.333-52.337-116.671-116.669-116.671-27.042 0-53.402 9.465-74.223 26.651-7.238 5.975 1.979 17.814 9.549 11.568 18.14-14.973 41.108-23.219 64.674-23.219 56.061 0 101.669 45.609 101.669 101.671v51.997h-6.336v-52.701c0-19.221-15.637-34.858-34.857-34.858-10.328-.534-20.555 2.965-27.932 10.344-32.193 32.194-75.384 56.348-121.767 57.286-4.083.083-7.349 3.416-7.349 7.499v12.432h-5.097v-51.997c0-19.987 5.792-39.327 16.75-55.93 5.17-7.833-7.114-16.453-12.519-8.263-12.582 19.062-19.232 41.259-19.232 64.192v56.144c-17.099 12.25-8.209 40.254 12.896 40.254h7.2v36.4c0 21.773 13.003 41.213 33.126 49.525 10.599 4.378 21.481 7.599 32.496 9.685v9.277c0 12.115-6.676 23.116-17.422 28.709-12.653 6.586-25.306 13.172-37.959 19.758-41.988 21.857-68.074 64.845-68.074 112.185v25.892c0 9.385 15 9.813 15 0v-25.892c0-41.726 22.992-79.615 60.004-98.88l26.699-13.897 51.304 51.305c3.535 2.929 7.071 2.929 10.606 0l49.587-49.588c13.166 6.853 28.175 13.036 39.733 22.422l-84.463 109.96c-5.767 7.508 6.062 16.733 11.896 9.138l132.986-173.132 15.371 29.182c8.325 15.803 32.173 13.919 38.021-2.839l23.547-67.471c10.675 1.382 20.516 7.059 27.005 15.786l25.495 34.292c6.332 8.515 16.178 9.769 25.95 9.313 2.063 11.39 8.59 24.208 19.195 30.027-8.272 13.757-23.394 22.684-39.909 22.684h-67.52c-9.553 0-17.987 5.744-21.486 14.633l-9.393 23.859c-3.408 8.655 10.273 14.853 13.957 5.494l9.393-23.859c1.226-3.115 4.181-5.127 7.529-5.127h67.52c27.079 0 51.339-18.141 58.994-44.116l4.197-14.24c1.709-5.795.613-11.896-3.007-16.737zm-251.269-163.149c9.008 0 9.42 14.401 0 14.401h-7.2v-14.401zm-206.305 14.401c-9.008 0-9.42-14.401 0-14.401h7.2v14.401zm22.2 51.4v-86.048c47.496-3.095 91.588-28.227 124.723-61.363 12.421-12.423 37.182-4.775 37.182 13.908v133.485c0 15.688-9.371 29.688-23.874 35.669l-.099.041c-36.786 15.173-77.3 15.162-114.08-.031-14.489-5.985-23.852-19.983-23.852-35.661zm85.475 151.758-42.729-42.729c17.262-10.406 23.364-28.51 22.877-47.686 11.526 1.09 23.192.944 34.687-.436-.511 20.71 6.604 40.078 26.104 49.912zm218.779-114.115-24.508 70.226c-1.658 4.75-8.242 5.241-10.587.791l-31.356-59.529c-1.471-4.149-.127-6.944 4.033-8.383l55.865-10.697c4.349-.837 8.011 3.414 6.553 7.592zm115.915 67.089c2.983.428 4.257 2.132 3.824 5.114l-3.188 10.818c-4.564-3.32-7.929-9.783-9.544-15.932z"/><path d="m125.484 471.854h-17.69v-17.69c0-9.385-15-9.813-15 0v17.69h-17.69c-9.385 0-9.813 15 0 15h17.69v17.69c0 9.385 15 9.813 15 0v-17.69h17.69c9.386 0 9.813-15 0-15z"/></g></g></svg>