<svg height="512" viewBox="0 0 59 59" width="512" xmlns="http://www.w3.org/2000/svg"><g id="Page-1" fill="none" fill-rule="evenodd"><g id="036---Vaccinations" fill-rule="nonzero" transform="translate(0 -1)"><path id="Shape" d="m1 60c-.4043959-.0000863-.76893405-.2437275-.92367798-.6173454-.15474393-.373618-.06922994-.8036603.21667798-1.0896546l7.917-7.917c.39074146-.3904653 1.02403467-.3902414 1.41449999.0005.39046531.3907415.39024141 1.0240347-.00049999 1.4145l-7.917 7.916c-.18749273.1875494-.44180519.2929434-.707.293z" fill="#bdc3c7"/><path id="Shape" d="m15.606 48.637-3.154 3.153c-.7821358.7780156-2.0458642.7780156-2.828 0l-1.414-1.414c-.77801559-.7821358-.77801559-2.0458642 0-2.828l3.153-3.154z" fill="#95a5a5"/><path id="Shape" d="m40.02 34.12-12.72 12.72c-3.9237889 3.7897221-10.1608478 3.7355237-14.0181858-.1218142-3.85733794-3.857338-3.9115363-10.0943969-.1218142-14.0181858l4.69-4.69c4.456.354 11.688-.182 15.15 1.99 3.27 2.05 3.89 4.43 7.02 4.12z" fill="#f5efca"/><path id="Shape" d="m47.1 27.04-6.99 7h-.01l-.08.08c-3.4829662.4306711-7.0099329-.3155534-10.02-2.12-3.6733229-2.2810418-7.8395121-3.6491977-12.15-3.99l5.21-5.21 1.42-1.41 1.41-1.42 7.07-7.07 8.04 6.1 3.56 4.69z" fill="#67b9cc"/><g fill="#3f5c6c"><path id="Shape" d="m30.13 22.8c-.190164.1849909-.4447023.2889572-.71.29-.2623399-.0011046-.5137394-.1052558-.7-.29l-2.83-2.83 1.41-1.41 2.83 2.82c.3899779.3930079.3899779 1.0269921 0 1.42z"/><path id="Shape" d="m27.3 25.63c-.3900375.3877236-1.0199625.3877236-1.41 0l-2.83-2.83 1.42-1.41 2.82 2.82c.3899779.3930079.3899779 1.0269921 0 1.42z"/><path id="Shape" d="m18.82 34.11c-.1864103.1918336-.4425137.3000725-.71.3000725s-.5235897-.1082389-.71-.3000725l-2.82-2.82 1.41-1.42 2.83 2.83c.3877236.3900375.3877236 1.0199625 0 1.41z"/><path id="Shape" d="m15.99 36.94c-.3943361.3867403-1.0256639.3867403-1.42 0l-2.68-2.68c.3689984-.5619695.7945494-1.0846935 1.27-1.56l.03.03 2.8 2.8c.3877236.3900375.3877236 1.0199625 0 1.41z"/></g><path id="Shape" d="m47.1 27.04-6.99 7h-.01l-.08.08c-3.4829662.4306711-7.0099329-.3155534-10.02-2.12-.974786-.6123507-1.9905136-1.1569678-3.04-1.63 5.31-3.9 11.42-6.85 17.6-6.68z" fill="#2fa8cc"/><path id="Shape" d="m40.02 34.12-12.72 12.72c-2.1079603 2.1132554-5.05072 3.1727604-8.021979 2.8882164s-5.6594491-1.8832996-7.328021-4.3582164c4.317453-5.6422409 9.364883-10.6863082 15.01-15 1.0494864.4730322 2.065214 1.0176493 3.04 1.63 3.0100671 1.8044466 6.5370338 2.5506711 10.02 2.12z" fill="#f9eab0"/><path id="Shape" d="m45 58c2 0 2 1 4 1s5-1 5-5-5-9-9-9-9 5-9 9 3 5 5 5 2-1 4-1z" fill="#35495e"/><ellipse id="Oval" cx="40.016" cy="38.008" fill="#35495e" rx="3" ry="4" transform="matrix(.993 -.117 .117 .993 -4.165 4.933)"/><ellipse id="Oval" cx="33.204" cy="44.145" fill="#35495e" rx="2" ry="3" transform="matrix(.91 -.414 .414 .91 -15.285 17.685)"/><path id="Shape" d="m50.636 13.607-.636-3.607-3.607-.636-5.656 5.657 1.263 2.979 2.979 1.263z" fill="#7f8c8d"/><path id="Shape" d="m32.96 19.97c-.1875741.1889094-.4438082.2935684-.71.29-.265803.0015368-.5212812-.1028135-.71-.29l-2.82-2.83 1.41-1.41 2.83 2.83c.3877236.3900375.3877236 1.0199625 0 1.41z" fill="#3f5c6c"/><path id="Shape" d="m47.808 27.749-15.557-15.557c-.7807639-.7809997-.7807639-2.0470003 0-2.828.375096-.37524801.8839266-.58607293 1.4145-.58607293s1.039404.21082492 1.4145.58607293l7.636 7.636 7.92 7.92c.375248.375096.5860729.8839266.5860729 1.4145s-.2108249 1.039404-.5860729 1.4145c-.7809997.7807639-2.0470003.7807639-2.828 0z" fill="#95a5a5"/><rect id="Rectangle-path" fill="#95a5a5" height="6" rx="2" transform="matrix(.707 .707 -.707 .707 21.452 -33.062)" width="20" x="40.636" y="6.364"/><ellipse id="Oval" cx="50.016" cy="37.988" fill="#35495e" rx="4" ry="3" transform="matrix(.117 -.993 .993 .117 6.447 83.226)"/><ellipse id="Oval" cx="56.796" cy="44.146" fill="#35495e" rx="3" ry="2" transform="matrix(.414 -.91 .91 .414 -6.887 77.599)"/></g></g></svg>